<?xml version="1.0" encoding="UTF-8"?> <svg xmlns="http://www.w3.org/2000/svg" id="Layer_1" data-name="Layer 1" viewBox="0 0 326.1 153.52"><path d="M248.42,33.35a3.67,3.67,0,0,0-3.74,3.59h7.49A3.48,3.48,0,0,0,248.42,33.35Z" style="fill:none"></path><path d="M221.34,42.2c2.19,0,4-1.65,4-4.44a4,4,0,0,0-4-4.37,4.07,4.07,0,0,0-4,4.39A4.07,4.07,0,0,0,221.34,42.2Z" style="fill:none"></path><path d="M235,33.35a3.67,3.67,0,0,0-3.74,3.59h7.48A3.47,3.47,0,0,0,235,33.35Z" style="fill:none"></path><path d="M279.1,68.15c2.16,0,4-1.62,4-4.41a4.06,4.06,0,0,0-4-4.39c-2.17,0-4,1.57-4,4.37S276.93,68.15,279.1,68.15Z" style="fill:none"></path><path d="M262.29,85.26a3.68,3.68,0,0,0-3.75,3.59H266A3.48,3.48,0,0,0,262.29,85.26Z" style="fill:none"></path><path d="M247.77,63.74a4.07,4.07,0,0,0,4,4.41c2.18,0,4-1.64,4-4.43s-1.84-4.37-4-4.37A4.08,4.08,0,0,0,247.77,63.74Z" style="fill:none"></path><path d="M30.33,118.11c.12.32.33.6.61.62a1.52,1.52,0,0,1,1.2.48c0,.07.12.14.18.21a1.32,1.32,0,0,0-.23-.91c-.33-.36-.64-.71-1-1.05l-1-1.23V117A1.41,1.41,0,0,1,30.33,118.11Z" style="fill:none"></path><path d="M28.6,120h-.09c.82,3.34.7,3.38.64,3.34-.37-.32-.64-.73-1-1-.22-.13-.59,0-.88-.09-.12,0-.25-.18-.31-.32-.18-.45.06-1-.33-1.36a4.54,4.54,0,0,1-.52-.56H24.63c.69.78,1.39,1.55,2.08,2.34.06.1,0,.32,0,.51,0,.66.17.86.74,1,1,.18,1,.2,1.07,1.11,0,.67.25.87.82.89.39,0,.79,0,1.18,0a6.45,6.45,0,0,0-.63-.65c-.45-.4-.25-.91-.29-1.36,0-.12,0-.25-.7-2.77a1.06,1.06,0,0,1-.2-.72C28.67,120.2,28.64,120.07,28.6,120Z" style="fill:none"></path><path d="M306.87,59.35c-2.08,0-4,1.4-4,4.39s1.84,4.41,3.89,4.41,4.07-1.4,4.07-4.41S308.9,59.35,306.87,59.35Z" style="fill:none"></path><path d="M221.34,85.3a4.42,4.42,0,0,0,0,8.81c2.19,0,4-1.64,4-4.44A4,4,0,0,0,221.34,85.3Z" style="fill:none"></path><path d="M245,111.26c-2.08,0-4,1.41-4,4.39s1.84,4.42,3.89,4.42,4.07-1.41,4.07-4.42S247,111.26,245,111.26Z" style="fill:none"></path><path d="M247.28,89.7c0-3-2-4.4-4-4.4s-4,1.41-4,4.4,1.84,4.41,3.89,4.41S247.28,92.7,247.28,89.7Z" style="fill:none"></path><path d="M272.09,111.26c-2.17,0-4,1.58-4,4.37s1.84,4.44,4,4.44,4-1.63,4-4.42A4.06,4.06,0,0,0,272.09,111.26Z" style="fill:none"></path><path d="M300.55,111.26c-2.16,0-4,1.58-4,4.37s1.84,4.44,4,4.44,4-1.63,4-4.42A4.06,4.06,0,0,0,300.55,111.26Z" style="fill:none"></path><path d="M183.77,120.22a1.44,1.44,0,0,0-.55-.08,2.77,2.77,0,0,0-2.41,1.38,2.45,2.45,0,0,0,.13,2.9,2.89,2.89,0,0,0,2.92,1,1.4,1.4,0,0,0,.34-.13,2.87,2.87,0,0,0,1.43-3.24A3.09,3.09,0,0,0,183.77,120.22Z" style="fill:#69a4d9"></path><path d="M185.85,107.93a1.45,1.45,0,0,0-2,0,1,1,0,0,0-.3,1,2.52,2.52,0,0,0,1.26,1.46,1.13,1.13,0,0,0,1.58-.32,1.51,1.51,0,0,0,.24-.65A1.6,1.6,0,0,0,185.85,107.93Z" style="fill:#69a4d9"></path><path d="M173.17,121.66a2,2,0,0,0-1.13-.28,1.34,1.34,0,0,0,.2,2.67,2.5,2.5,0,0,0,.54-.07,1.46,1.46,0,0,0,1-1.36,1.08,1.08,0,0,0-.18-.51A3.15,3.15,0,0,0,173.17,121.66Z" style="fill:#69a4d9"></path><path d="M189.16,114.91a1.4,1.4,0,0,0-.57-1.71,1.15,1.15,0,0,0-1.61.91,1.45,1.45,0,0,0,1.07,1.48.76.76,0,0,0,.81-.23A1.86,1.86,0,0,0,189.16,114.91Z" style="fill:#69a4d9"></path><path d="M190,118.52a4.05,4.05,0,0,0-.55-.08,1,1,0,0,0-1.07,1,1.29,1.29,0,0,0,.36,1,1,1,0,0,0,1.17.12,1.27,1.27,0,0,0,.42-1.61A1.76,1.76,0,0,0,190,118.52Z" style="fill:#69a4d9"></path><path d="M187.06,103.9a.84.84,0,0,0,.74-.4,1.16,1.16,0,0,0-.39-1.34,1.38,1.38,0,0,0-.44-.08.82.82,0,0,0-.78.84A1,1,0,0,0,187.06,103.9Z" style="fill:#69a4d9"></path><path d="M180.9,115.9a3.69,3.69,0,0,0,.39-.27,1.06,1.06,0,0,0,.18-.88.7.7,0,0,0-1.32-.15,1,1,0,0,0,.11,1.15A.56.56,0,0,0,180.9,115.9Z" style="fill:#69a4d9"></path><path d="M177.13,129.34a.61.61,0,0,0-.65.18,1.14,1.14,0,0,0-.14,1,.8.8,0,0,0,.2.29c.09.1.36,0,.49-.1a1.38,1.38,0,0,0,.41-.8A.71.71,0,0,0,177.13,129.34Z" style="fill:#69a4d9"></path><path d="M195.73,109.11c-.09,0-.17.14-.26.21a.81.81,0,0,0,.67.91c.22,0,.49-.23.46-.43A.79.79,0,0,0,195.73,109.11Z" style="fill:#69a4d9"></path><path d="M173.77,117.47a.72.72,0,0,0,0,.83.31.31,0,0,0,.45.1.71.71,0,0,0,.14-1A.35.35,0,0,0,173.77,117.47Z" style="fill:#69a4d9"></path><path d="M170.09,125.94a.6.6,0,0,0-.3.14.63.63,0,0,0-.2.63.37.37,0,0,0,.19.26.62.62,0,0,0,.32,0c.05,0,.09-.08.17-.15a2.63,2.63,0,0,0,.1-.46C170.39,126.11,170.23,125.91,170.09,125.94Z" style="fill:#69a4d9"></path><path d="M192,106.41c0,.1-.08.24,0,.31s.19,0,.3.06.07-.23,0-.31S192.09,106.33,192,106.41Z" style="fill:#69a4d9"></path><path d="M11.94,101.29a3.7,3.7,0,0,0-2.77-.49,1.66,1.66,0,0,0-1.5,1.83,2.21,2.21,0,0,0,.34,1,2.35,2.35,0,0,0,2.31.94,2.12,2.12,0,0,0,2.18-1.87A1.39,1.39,0,0,0,11.94,101.29Z" style="fill:#69a4d9"></path><path d="M.7,97.91a1.14,1.14,0,0,0-.7,1,2.62,2.62,0,0,0,.08.79,2.07,2.07,0,0,0,2.24,1.41,1.69,1.69,0,0,0,1-2.53A2.12,2.12,0,0,0,.7,97.91Z" style="fill:#69a4d9"></path><path d="M12.7,110.22a1.22,1.22,0,0,0-.48,1.15,1.69,1.69,0,0,0,1.69,1.15,1.7,1.7,0,0,0,.57-.33s0,0,0,0v-1.68A1.39,1.39,0,0,0,12.7,110.22Z" style="fill:#69a4d9"></path><path d="M8.94,92.75a1,1,0,0,0,1.2.08,1.07,1.07,0,0,0,.43-1.13,1.5,1.5,0,0,0-1.2-1.2.82.82,0,0,0-.86.42,5.07,5.07,0,0,0-.19.67A1.51,1.51,0,0,0,8.94,92.75Z" style="fill:#69a4d9"></path><path d="M4.55,111.56c-.09,0-.26.13-.4.22.09.13.14.32.25.39s.33,0,.4-.21S4.67,111.6,4.55,111.56Z" style="fill:#69a4d9"></path><path d="M28.68,120H28.6c0,.11.07.24.1.35C28.7,120.19,28.69,120.07,28.68,120Z" style="fill:#69a4d9"></path><path d="M172.21,64a3.08,3.08,0,0,0-1.49,2.69,3.58,3.58,0,0,0,.24,1.43,2.47,2.47,0,0,0,1.06,1,9.05,9.05,0,0,0,2.42.89c1.06.27,2.47.6,4.21,1a26.74,26.74,0,0,1,6.13,2,1.64,1.64,0,0,1,0-.22c.05-1.33,0-2.69,0-4a1,1,0,0,0-.43-.82,1.5,1.5,0,0,1-.49-1.28c0-.65,0-1.3,0-2A19,19,0,0,0,176.13,63,7,7,0,0,0,172.21,64Z" style="fill:#69a4d9"></path><path d="M129.72,67.47a10.53,10.53,0,0,0-3.23-2.25,9.93,9.93,0,0,0-7.88,0,9.66,9.66,0,0,0-3.14,2.21,11.19,11.19,0,0,0-2.15,3.31,10,10,0,0,0-.82,4,10.33,10.33,0,0,0,.77,4,10,10,0,0,0,2.16,3.23,10.83,10.83,0,0,0,3.23,2.21,9.35,9.35,0,0,0,3.91.84,9.56,9.56,0,0,0,3.88-.8A9.66,9.66,0,0,0,129.59,82a11.25,11.25,0,0,0,2.15-3.27,9.46,9.46,0,0,0,.82-3.89,11.07,11.07,0,0,0-.73-4A9.71,9.71,0,0,0,129.72,67.47Z" style="fill:#69a4d9"></path><path d="M32.59,81.92a11.09,11.09,0,0,0,3.23,2.21,9.39,9.39,0,0,0,3.92.84,9.56,9.56,0,0,0,3.88-.8A9.66,9.66,0,0,0,46.76,82a11.25,11.25,0,0,0,2.15-3.27,9.46,9.46,0,0,0,.82-3.89,11.07,11.07,0,0,0-.73-4,9.71,9.71,0,0,0-2.11-3.31,10.65,10.65,0,0,0-3.23-2.25,9.67,9.67,0,0,0-11,2.16,11.41,11.41,0,0,0-2.16,3.31,10.18,10.18,0,0,0-.81,4,10.33,10.33,0,0,0,.77,4A10.09,10.09,0,0,0,32.59,81.92Z" style="fill:#69a4d9"></path><path d="M14,63.45c0,2,0,4,0,6A1.48,1.48,0,0,1,14,70a1.29,1.29,0,0,1-.33.37c-.55.61-.55.61-.53,1.75a1.55,1.55,0,0,1-.41,1.32c-.53.5-.53.57,0,1a1.24,1.24,0,0,1,.45.82c0,4.35,0,8.7,0,13.08a1.55,1.55,0,0,0,.51,1.27,1,1,0,0,1,.42.82V99a.68.68,0,0,0,.24.38c.08.1.17.18.25.27V62.35A1.32,1.32,0,0,0,14,63.45Z" style="fill:#69a4d9"></path><path d="M191.07,78.44a1.34,1.34,0,0,0-.18-1.24c-.54-.54-.5-.57-.68-1.71a.68.68,0,0,0-.31-.36A4.7,4.7,0,0,0,188,75a13.36,13.36,0,0,1,1.52,1.36A12.68,12.68,0,0,1,191.07,78.44Z" style="fill:#69a4d9"></path><path d="M26.62,120.52c.39.36.15.91.33,1.36.06.14.19.3.31.32.29.09.66,0,.88.09.37.28.64.69,1,1,.06,0,.18,0-.64-3.34H26.1A4.54,4.54,0,0,0,26.62,120.52Z" style="fill:#69a4d9"></path><path d="M169.46,105.29a35.45,35.45,0,0,1-11.81-2.07.94.94,0,0,1-.86.29,2,2,0,0,1-1.36-.73.75.75,0,0,1-.14-.47,47.19,47.19,0,0,1-5.67-2.87L156,86.73q7.35,5.16,13.93,5.16a6.72,6.72,0,0,0,4-1.09A3.29,3.29,0,0,0,175.46,88a4.53,4.53,0,0,0-.25-1.64,2.64,2.64,0,0,0-1-1.19,8,8,0,0,0-2.27-1c-1-.3-2.31-.61-3.92-1q-8.13-1.68-11.37-5t-3.24-9.18a18.39,18.39,0,0,1,1.55-7.7,15.81,15.81,0,0,1,4.45-5.8,20.59,20.59,0,0,1,7-3.68,30.45,30.45,0,0,1,9.14-1.29c.76,0,1.52,0,2.27.07a1,1,0,0,1-.31-.91c.1-.78-.72-1-.89-1.6a4,4,0,0,1,0-.5,1,1,0,0,0-.11-.45c-.37-.46-.94-.82-.8-1.65-.14-.68-.72-1-1.11-1.47A26,26,0,0,0,172.66,42c-.31-.35-.86-.05-1.21-.37l-1-1.07c-2.56-2.85-5.11-5.7-7.7-8.54a4.47,4.47,0,0,0-1.32-1.28c-.92.18-1.27-.68-1.8-1.21s-.87-.93-1.3-1.41a9.6,9.6,0,0,1-.94-1.07c-.35-.5-.89-.19-1.24-.37a4.34,4.34,0,0,1-1-1,2,2,0,0,0-1.93-1l-.41,0c-.35-.37-.68-.75-1-1.13a12.1,12.1,0,0,1-1-1.07.69.69,0,0,0-.6-.31L150.2,22a1.11,1.11,0,0,0-1-.4c-.17-.19-.32-.4-.47-.59a2,2,0,0,0-1.93-1l-.14,0-.18-.21a1.07,1.07,0,0,0-.87-.28c-.63-.73-1.31-1.4-1.89-2.12-.37-.48-.78-.36-1.23-.41a3,3,0,0,1-.89,0,3.25,3.25,0,0,1-.68-.66c-.3-.34-.65-.71-.94-1.07s-.85-.19-1.23-.37c-.13,0-.21-.22-.33-.32-.54-.59-.54-.64-1.15-.59a2.64,2.64,0,0,1-.69,0,.36.36,0,0,0-.08-.18.75.75,0,0,0-.8-.32h-.1a2.07,2.07,0,0,1-.27-.31.47.47,0,0,0-.41-.18,1,1,0,0,1-.82-.19c-.92-.82-.92-.86-2-.82a1.18,1.18,0,0,1-1.11-.61.7.7,0,0,0-.78-.39.63.63,0,0,1-.78-.31c-.14-.23,0-.48.29-.71s.41-.48.24-.71a.77.77,0,0,0-.8-.32,12.16,12.16,0,0,1-1.35,0c-.46,0-.91,0-1.36,0s-.76.48-1.07.8a1.07,1.07,0,0,1-1.23.09.73.73,0,0,1-.35-.86.75.75,0,0,0-.29-.87,1.11,1.11,0,0,0-1.23,0,2.91,2.91,0,0,0-.33.37,1.06,1.06,0,0,1-1.17.45c-.35,0-.51-.38-.6-1.13S120,7,119.35,7c-2.86,0-5.73,0-8.61,0a6.72,6.72,0,0,1-.9,0c-.12,0-.25-.18-.35-.27-.35-.28-.51-.87-1.09-.74H88.46c0-.17-.16-.34-.41-.46a1.36,1.36,0,0,0-.45,0c-1.21,0-2.4,0-3.64,0-.53,0-.73-.46-1.06-.78s-.25-.23-1.73-.23H76.65a.88.88,0,0,0-.74.46c-.55.68-.49.55-1.15.55h-.83c-.18-.24-.36-.42-.56-.42s-.2.2-.31.34a.6.6,0,0,1-.08.08H71.21a.08.08,0,0,0,0,0c-.08-.09-.18-.27-.31-.32s-.45,0-.55.36h-.07a.67.67,0,0,0-.41.16c-.23.2-.41.5-.66.7s-.84,0-1.21.36c-.86.78-.86.78-1.5.78H63.73c-.33.32-.66.66-1,1-.74,0-1.5.07-2.24,0-.55-.07-.8.37-1.09.69a.83.83,0,0,1-.8.34h0l-.33-.33A1.23,1.23,0,0,0,57,9.18c-.39.46-.78.94-1.18,1.38-.8.13-1.15,1-1.72,1.55-.39.35-.1,0,.55.47a1.4,1.4,0,0,0,.29,0,.91.91,0,0,0-.07.14s0,0,0,.06l-.21-.2a.36.36,0,0,1-.14,0c-.22-.05-.36,0-.43.08l.78.21c0,.12,0,.25,0,.36a1.83,1.83,0,0,1-.07.39h-.06a1,1,0,0,1-.62-.53.51.51,0,0,1,0-.42,1,1,0,0,0-.43-.05c-.41.07-.86-.16-1.23.34-.7.87-1.48,1.68-2.26,2.51-.19.2-.5.13-.82.18a.63.63,0,0,0-.59.46,1,1,0,0,0-1.09.44,1.72,1.72,0,0,1-.31.34c-.21.25-.45.46-.64.73s-.45.5-.63.32a.65.65,0,0,1-.29-.37,8.53,8.53,0,0,1,0-1q1.91-2.11,3.84-4.23c.35-.39.88-.1,1.21-.39a9.58,9.58,0,0,0,1-1.05c.43-.48.88-.91,1.27-1.44s.81-.39,1.22-.36c1,0,1,0,1.56-.68.33-.37.65-.69,1-1.08s.84-.18,1.23-.36a.73.73,0,0,0,.31-.34A1.58,1.58,0,0,1,60,6a1.13,1.13,0,0,0,1.19-.45A1.22,1.22,0,0,1,62.34,5c.45,0,.9.14,1.29-.18,1-.82,1-.82,1.5-.82a9.9,9.9,0,0,0,1.81,0c.45-.07.7-.59,1-.94.45,0,.88,0,1.33,0s.91,0,1.36,0c.12,0,.22-.21.35-.3.33-.29.51-.87,1.09-.7h9.51c.12,0,.25-.23.33-.37s-.06-.48-.39-.64a1.69,1.69,0,0,0-.45,0c-1.22,0-2.41,0-3.64,0-.54,0-.74-.45-1.07-.77S76.14,0,74.66,0H70.15a.87.87,0,0,0-.74.46c-.56.68-.5.54-1.16.54H63.73a.67.67,0,0,0-.41.16c-.22.21-.41.5-.65.71s-.85,0-1.22.36C60.59,3,60.59,3,60,3H57.22c-.33.32-.66.66-1,1-.75,0-1.5.07-2.25,0-.55-.07-.8.36-1.09.69a.8.8,0,0,1-.8.33c-.45,0-.9,0-1.33,0-.23.23-.43.48-.66.71s-.25.27-.35.24c-1.13-.18-1.5.92-2.15,1.56-.4.35-.1-.05.55.47a3.47,3.47,0,0,1,.72,0c.29.06.43.32-.41.27.84.59.25.82-.25.7a.9.9,0,0,1-.61-.52c-.08-.21-.08-.34,0-.42A1,1,0,0,0,47.13,8c-.41.07-.86-.16-1.23.35-.7.86-1.48,1.68-2.26,2.5-.18.21-.49.14-.82.18-.49.07-.7.37-.66,1,0,.37,0,.69-.37.82-.53.21-1.19.07-1.56.73-3.08,3.42-6.18,6.88-9.29,10.3a6.53,6.53,0,0,0-.57.73c-.08.14,0,.34,0,.5s0,.39,0,.5a6,6,0,0,0-.87,1.1c.15.77-.28,1.2-.7,1.68s-1.27,1-1.11,2a.69.69,0,0,1-.2.41c-.51.59-1.07,1.18-1.58,1.79-.06.09,0,.33,0,.48a2.16,2.16,0,0,1,0,.51c-.29.54-1,.77-.93,1.59.06.46,0,.46-1.29,1.92a1.61,1.61,0,0,0-.33.36,1.33,1.33,0,0,0-.19.91.59.59,0,0,1-.14.43c-.43.46-.9.89-.76,1.67-.16.5-.6.72-.82,1.14s.06.95-.33,1.36a2.41,2.41,0,0,0-.64.71,4,4,0,0,0,0,1,3,3,0,0,1,0,1,2.47,2.47,0,0,1-.62.73c-.43.37-.12,1-.32,1.34s-.66.66-.84,1.12a1.19,1.19,0,0,0,0,.5v1a.86.86,0,0,1-.42.81,1.35,1.35,0,0,0-.46.75H30.1v5a16.27,16.27,0,0,1,13.6-6.45,20.81,20.81,0,0,1,8.83,1.9,22.39,22.39,0,0,1,7.1,5.17,23.53,23.53,0,0,1,4.7,7.69A26.4,26.4,0,0,1,66,74.8a25.69,25.69,0,0,1-1.68,9.37A25,25,0,0,1,62.44,88a.62.62,0,0,1,.19.12.87.87,0,0,1-.05,1.25c-.15.13-.48,0-.59-.24,0-.09-.07-.18-.1-.27a24,24,0,0,1-2.21,2.89,21.34,21.34,0,0,1-4.87,4c0,.11.06.22.1.34a2.64,2.64,0,0,1-.28.64,1.72,1.72,0,0,1-2.19.48,1.3,1.3,0,0,1-.18-.15,20.88,20.88,0,0,1-8.38,1.69A18.15,18.15,0,0,1,30.1,92.92v11.34l.4.47a10.73,10.73,0,0,1,0,1.5c-.06.61.44.82.69,1.21.08.11.22.25.22.38,0,.3,0,.59,0,.89-.2,0-.42,0-.62,0h-.45c0,.18,0,.39,0,.5a2.78,2.78,0,0,0,.62.71c.41.39.2.91.33,1.36a17.15,17.15,0,0,0,1.27,1.42,1.55,1.55,0,0,1,.49,1.3.52.52,0,0,0,.14.41,2.26,2.26,0,0,1,.75,1.3c-.24-.3-.47-.61-.73-.91-.47-.54-.5-.59-1,0-.26.37-.43.48-.66.23a.79.79,0,0,1-.22-.41,1.82,1.82,0,0,0-.74-1.68.75.75,0,0,1-.17-.42,1.43,1.43,0,0,0-.4-1.2v4.94l1,1.23c.33.34.64.69,1,1.05a1.32,1.32,0,0,1,.23.91c-.06-.07-.13-.14-.18-.21a1.52,1.52,0,0,0-1.2-.48c-.28,0-.49-.3-.61-.62A1.41,1.41,0,0,0,30.1,117V120h0c.53.58,1.06,1.16,1.58,1.75.41.14.89-.09,1.23.35s.64.7,1,1.06c.54.6,1,1.21,1.62,1.76.33.3.35.43.06.73-.72.79-1.43,1.59-2.15,2.39a1.24,1.24,0,0,1-.13-.65c0-.18.06-.41,0-.5-.95-1.1-1.94-2.12-2.84-3.21-.24-.3-.45-.48-.78-.34v-.51a2.77,2.77,0,0,0,0-1,1.92,1.92,0,0,0-.61-.7L28.9,121c.68,2.52.68,2.65.7,2.77,0,.45-.16,1,.29,1.36a6.45,6.45,0,0,1,.63.65c-.39,0-.79,0-1.18,0-.57,0-.78-.22-.82-.89,0-.91,0-.93-1.07-1.11-.57-.12-.74-.32-.74-1,0-.19.06-.41,0-.51-.69-.79-1.39-1.56-2.08-2.34H23.08a.93.93,0,0,0,.3.66,13.41,13.41,0,0,1,1.3,1.41c.35.39.14.91.31,1.37,1.29,1.41,2.56,2.85,3.86,4.24.33.34.86,0,1.23.36s.62.73,1,1.07l3.2,3.56a.82.82,0,0,0,.82.2,2,2,0,0,1,2,.85c.42.57.84,1.27,1.62,1.18l2.09,2.31a.82.82,0,0,0,.82.21,2.42,2.42,0,0,1,.6,0l.18.2c.44.46.75,1.09,1.34,1.28a1.59,1.59,0,0,0,.38.06,1.22,1.22,0,0,0,1.28.47l.43.41s0,0,0,.06c0,.64.26,1,.7,1.05h.36a2.09,2.09,0,0,1,.14.17c.33.5.83.22,1.21.36s.44.48.66.68c.44.46.74,1.1,1.34,1.28a5.54,5.54,0,0,0,1.36.05c.45,0,.74.36.74.95s.26,1,.69,1.05.6,0,.91,0A1.12,1.12,0,0,1,55,146c.28.45.74.45,1.19.45s.86-.13,1.27.23c.76.78.76.78,1.52.78.45,0,.91,0,1.36,0a1.06,1.06,0,0,1,1.09.66c.39.7,1.21,0,1.58.7s.92.69,1.56.67.74,0,1.52.75c.09.07.25.16.31.11.23-.21.43-.48.64-.71.37-.32.86,0,1.23-.36.12-.09.29-.23.24-.32s-.15-.29-.28-.37a2.66,2.66,0,0,0-1.32-.13c-.57,0-.65.07-1.11-.59s-1.17-.14-1.58-.69c-.18-.27-.39-.59-.64-.68s-.59-.05-.9-.05a2,2,0,0,1-.88,0c-.27-.09-.43-.41-.66-.64s-.23-.32-.35-.32h-.55l.29-.34c.37-.32.87-.05,1.23-.36.13-.1.29-.23.25-.32s-.16-.3-.29-.37a2.52,2.52,0,0,0-1.31-.13c-.58,0-.66.06-1.11-.6s-1.17-.13-1.58-.68c-.19-.28-.39-.59-.64-.68a1.92,1.92,0,0,0-.9,0,1.91,1.91,0,0,1-.89-.05c-.27-.09-.43-.41-.66-.63s-.22-.32-.34-.32c-.41,0-.83,0-1.26,0,0-.13-.12-.25-.31-.45a4.92,4.92,0,0,1-.64-.73.81.81,0,0,0-.78-.32.75.75,0,0,0-.78.41.71.71,0,0,1-.07.09,1.12,1.12,0,0,0-.32,0,.61.61,0,0,1-.41-.09c-.22-.2-.41-.48-.64-.7s-.88-.05-1.21-.37-.82-1-1.51-.87c-.11,0-.25-.09-.38-.18-.3-.22-.2-.41.13-.73.57-.54.53-.59.1-1a5.58,5.58,0,0,1-.64-.73.77.77,0,0,0-.78-.32.75.75,0,0,0-.72.33,30.08,30.08,0,0,0-.2-3.79s0,0,0,0c-.45-.16-.63-.39-.61-.6s.18-.29.28-.29.42.14.54.46a.71.71,0,0,1,0,.41h0c.25,0,.39,0,.48,0,.25.18.41.46.66.68.08.1.24.28.28.23a.77.77,0,0,0,.42-.79V130l-.87-1.1c-.74-.82-1.5-1.66-2.26-2.46,0,0-.2.14-.3.23s-.44.46-.64.69a2.18,2.18,0,0,1-.33-.35c-1-1.07-1.93-2.12-2.88-3.21a1.34,1.34,0,0,0-1-.46l-.78-.85a2.22,2.22,0,0,0-.7-1.47c-.4-.45,0-1.28-.66-1.73-.35-.27-.62-.73-1-1s-.39-.82-.39-1.32v-.42a.72.72,0,0,0,.4.27c1,.3,1,.3,1.52.8s.88,1.37,1.81,1.23c.27,0,.51.23.7.55a.8.8,0,0,0,.74.45h.45a4,4,0,0,0,.6,0,1.5,1.5,0,0,1,.15.86.58.58,0,0,0,.12.36.53.53,0,0,0-.09.11,1.27,1.27,0,0,0-.06,1.34c.16.34.43.48,1.21.34-.66,0-.7,0-.43-.46a1,1,0,0,1,1-.54c.09.08.18.17.31.31a3.07,3.07,0,0,1,.34.38.73.73,0,0,1-.39.31,3.8,3.8,0,0,1-.82,0c-.43.68-.86,0-.43.5,1.58,1.78,3.16,3.53,4.74,5.29.1.09.23.23.35.25a3.54,3.54,0,0,0,.46,0,.88.88,0,0,0,.74-.43,2.21,2.21,0,0,1,.4-.37l1.68,1.86c-.59,0-1.08-.06-1.55-.06-.11,0-.23.21-.31.35a.5.5,0,0,0,0,.34,7.12,7.12,0,0,0,1.31,1.32c.46,0,.87-.05,1.2.43a1.21,1.21,0,0,0,1.15.59,3.82,3.82,0,0,1,.83,0l.25.27c.1.09.23.23.35.25a.41.41,0,0,0,.22,0,1.2,1.2,0,0,0,1.1.5.56.56,0,0,1,.39.16l.32.35h-.3c-.11,0-.23.2-.31.34a.5.5,0,0,0,0,.34,6.83,6.83,0,0,0,1.31,1.32c.45,0,.87,0,1.19.43a1.23,1.23,0,0,0,1.15.6c.42-.05.93-.16,1.28.13s.78,1,1.48.87a.58.58,0,0,1,.39.16c.43.48.84,1,1.29,1.41a2.76,2.76,0,0,0,.31.37,3,3,0,0,0,.64-.6.76.76,0,0,1,.61-.38,1.18,1.18,0,0,0,1,.53.84.84,0,0,1,0,.27,1.48,1.48,0,0,0,.17.93,1.5,1.5,0,0,0,.32.29l.62-.72a.82.82,0,0,1,.55-.28,1.36,1.36,0,0,0,1,.53,1.08,1.08,0,0,1,0,.41c0,.32,0,.66,0,1,0,.86.27,1.14,1.07,1.14h.6v1.63a.89.89,0,0,1-.41.8c-.12.11-.2.22-.33.36a1.48,1.48,0,0,0,0,1.37.66.66,0,0,0,.78.36,8.84,8.84,0,0,1,1.36,0c.2.22.41.48.64.7s.23.28.35.28c1.35,0,2.69,0,4,0a.23.23,0,0,0,.12,0v.67a.88.88,0,0,1-.41.8c-.12.11-.2.22-.33.36a1.42,1.42,0,0,0,0,1.37.67.67,0,0,0,.78.37,8.8,8.8,0,0,1,1.36,0c.2.23.41.48.64.71s.22.27.34.27c1.36,0,2.69,0,4.05,0,.55,0,.74-.46,1.09-.76.08-.06.27-.2.29-.18.35.3.57.8,1,.89a5.17,5.17,0,0,0,1.36,0,2.08,2.08,0,0,0,.41-.11c.41-.23.39-.43,0-.73s-.61-.71-1-1a.79.79,0,0,0-.39-.11c-1-.21-1.09-.25-1.07-1.12,0-.5,0-1,0-1.46.23-.24.45-.47.66-.72s.2-.28.18-.41a1.83,1.83,0,0,1,.76-1.64c.33-.33.54-.73,1.11-.71,1.19.07,2.38,0,3.6,0v-1c0-.62.26-1,.72-1,.73,0,1.52,0,2.26,0a.68.68,0,0,1,.37.18c.9.82.9.82,1.52.82,1.68,0,3.32,0,5,0a1.26,1.26,0,0,1,1.13.63.82.82,0,0,0,.78.39.81.81,0,0,0,.78-.32c.29-.36.54-.73,1.11-.73,3.25.05,6.51,0,9.78.05l-.12.15c-.39.48-.82.25-1.25.34-.12,0-.25.21-.31.34a.49.49,0,0,0,.39.64,15.61,15.61,0,0,0,1.81,0c.74,0,.74,0,1.52-.77a.94.94,0,0,1,.82-.23,1.79,1.79,0,0,0,2-.82,1,1,0,0,1,1.24,0q.15.16.3.36c.44.46.48.5,1-.13.33-.46.78-.32,1.19-.44s.5-.39.66-.64c.35-.52.86-.18,1.23-.38a1.72,1.72,0,0,0,.53-.45h.27a1,1,0,0,0,.74-.5l0,0a.94.94,0,0,0,.64-.37l.07-.08c1,0,2.1,0,3.13,0a.76.76,0,0,0,.39-.18c.92-.82.92-.82,1.5-.82,1.05,0,2.12,0,3.19.05a1.32,1.32,0,0,0,1.1-.64c.33-.36.66-.73,1-1.07a2.22,2.22,0,0,1,.31-.3c.22.23.43.48.64.71.08.07.28.18.33.16a1.91,1.91,0,0,1,1.93-.91c.69.07.69,0,1.17-.5.65-.6,1-1.73,2.15-1.51a11,11,0,0,0,1.32-1.32,4.3,4.3,0,0,1,.64-.64c.51-.36-.11-.13.3.34s.52.53,1.3-.2a1.06,1.06,0,0,1,1.23,0c.39.22.35.43,0,.7a9,9,0,0,0-1,1.08c-.3,0-.63-.07-.88.08a6.56,6.56,0,0,0-1,1,5.26,5.26,0,0,0-.64.7.77.77,0,0,1-.8.32c-.45,0-.91,0-1.34,0-.33.37-.63.73-1,1.1-.2.22-.41.45-.65.68a.94.94,0,0,1-.82.21.63.63,0,0,0-.39.15c-.41.51-.8,1-1.5.87-.25-.05-.52.28-.7.55-.29.52-.78.36-1.2.45a1.53,1.53,0,0,0-.65.64c-.33.55-.86.18-1.24.37a5.18,5.18,0,0,0-1,1c-.45,0-.86-.09-1.23.38-.5.67-.54.62-1.56.62a1.18,1.18,0,0,0-1.2.46,1.14,1.14,0,0,1-1.15.54c-.45,0-.92,0-1.37,0a1.16,1.16,0,0,0-1.17.53c-.29.48-.72.48-1.18.48s-.88-.14-1.27.22c-.8.78-.8.78-1.54.78-1,0-1,0-1.54.68-.39.48-.82.25-1.25.35-.13,0-.25.2-.31.34a.48.48,0,0,0,.39.63,15.44,15.44,0,0,0,1.8,0c.75,0,.75,0,1.53-.77a1,1,0,0,1,.82-.23,1.76,1.76,0,0,0,2-.82,1,1,0,0,1,1.23,0c.1.11.21.23.31.36.43.46.47.51,1-.13.33-.46.78-.32,1.19-.43s.49-.39.66-.64c.35-.53.86-.18,1.23-.39s.66-.64,1-1c.45,0,.86.05,1.23-.41.49-.63.53-.59,1.13-.59h.9c.72,0,.72,0,1.95-.84a1,1,0,0,1,.39-.16c.6,0,1.22,0,1.83,0s.66,0,1.15-.55c.1-.13.21-.23.33-.36a6.85,6.85,0,0,0,.62-.71c.33-.52.78-.39,1.23-.41l1-1h1.35c.58,0,.78-.18.91-.8.16-1.14.16-1.16,1-1.21a1,1,0,0,0,.77-.43c.51-.59.53-.64,1.13-.57a1.88,1.88,0,0,0,2-.84.4.4,0,0,1,.38-.16.92.92,0,0,0,.82-.21c1.09-1.18,2.16-2.37,3.22-3.55a.76.76,0,0,1,.8-.3.56.56,0,0,0,.41-.06c.35-.32.58-.82,1-.92a1.49,1.49,0,0,0,1.19-.5c.5-.64,1.07-1.18,1.61-1.78a1.42,1.42,0,0,0,.22-.91c0-.66.23-.82.85-.84.16,0,.32,0,.45,0,.49-.28.7-1.1,1.44-1,.45,0,.45,0,1.39-1.1.76-.82,1.52-1.64,2.26-2.46.21-.25.44-.5.64-.73.35-.36.14-.91.31-1.36q2.43-2.67,4.83-5.34c.39-.16.88.09,1.23-.34s.64-.7,1-1.07.41-.48.61-.73a9.89,9.89,0,0,1,1-1.05c.61-.41.12-1.23.61-1.73,1-1,1.93-2.14,2.92-3.19.45-.5.5-.5.43-1.3a2.47,2.47,0,0,1,.83-2.16c.57-.52,1-1.18,1.62-1.73a.92.92,0,0,0,.29-.63A25,25,0,0,1,179,104,32.29,32.29,0,0,1,169.46,105.29ZM56.07,25l-.12.18h-.06a.74.74,0,0,1-.8-.22l-.39-.44a3.78,3.78,0,0,1,.67-.71.63.63,0,0,1,.42-.14.48.48,0,0,0,.26.33c.12.09.21.27.33.37a.48.48,0,0,1,.23.28A.72.72,0,0,0,56.07,25ZM57,23.13h-.12c.13-.14.25-.28.39-.41s.1,0,.18.11A1.16,1.16,0,0,1,57,23.13Zm5.24-7c-.21.41-.66.66-.82,1.12-.07.16,0,.34,0,.5-.06.68-.24.86-.84.86s-1.21.05-1.8,0a.78.78,0,0,0-.81.32c-.31.37-.67.69-.94,1a1.36,1.36,0,0,1-1.21.66l.78-.87c.43-.48.85-.94,1.26-1.42s.86-.11,1.21-.36.59-.7,1-.91c.65.16,1.06-.27,1.47-.78a.48.48,0,0,1,.37-.2,1.12,1.12,0,0,0,.37,0S62.2,16.13,62.19,16.14ZM58.1,144.93c.65,0,.73,0,1.26.49l-.79,0c-.42,0-.62-.24-.84-.51Zm-1.56-.66a.81.81,0,0,0,.12.14.6.6,0,0,1-.39-.09,5.11,5.11,0,0,1-.38-.41A.63.63,0,0,1,56.54,144.27Zm-1.68-.85a.73.73,0,0,1-.44-.17l-.33-.34A1,1,0,0,1,54.86,143.42ZM37.07,125.91c.2,0,.41.13.53.45a.7.7,0,0,1,0,.41s0,0,0,0c.24,0,.39-.05.47,0a7.13,7.13,0,0,1,.66.68c.08.09.25.27.29.23a.76.76,0,0,0,.41-.8v-.3c.28.37.62.68.92,1,.53.59,1,1.21,1.62,1.75.33.3.35.44.06.73-.86.94-1.68,1.89-2.55,2.83-.12.11-.2.25-.32.34-.21-.2-.42-.41-.64-.64-.47-.54-.47-.54-.74-1.69a1,1,0,0,0-.16-.35,27.11,27.11,0,0,0-.2-3.81.22.22,0,0,0,.18,0h-.19c-.45-.16-.63-.38-.61-.59S37,125.91,37.07,125.91Zm21.41,9.8a5,5,0,0,0-.44-.48.92.92,0,0,1-.28-.39l.24,0a.72.72,0,0,1,.48.73A.34.34,0,0,0,58.48,135.71Zm1.73.41a.7.7,0,0,1-.8.25h0l.21-.26a.83.83,0,0,1,.73-.27A.25.25,0,0,1,60.21,136.12Zm3.27-33.9A1,1,0,0,1,63,101a.43.43,0,0,1,.6-.2,1,1,0,0,1,.57,1A.48.48,0,0,1,63.48,102.22Zm0-6.18a2.55,2.55,0,0,1-1.51.44,4,4,0,0,1-.81-.23,1.23,1.23,0,0,1-.55-.46,2,2,0,0,1,.22-2.28,3.41,3.41,0,0,1,.57-.45,1.75,1.75,0,0,1,2.25.22A1.72,1.72,0,0,1,63.45,96Zm76.94-66.35a4.54,4.54,0,0,1,.73-.66,2.42,2.42,0,0,1,3.07.65,1.84,1.84,0,0,1-.11,2.21,2.46,2.46,0,0,1-1.83.78,1.88,1.88,0,0,1-2-1.92A8.38,8.38,0,0,1,140.39,29.69Zm-1.72-4.49c.16,0,.29.26.43.42a.14.14,0,0,1,0,.06h.71c.06,0,.13.07.21.14a.1.1,0,0,1,0,.05c-.1.1-.23.26-.33.28a3.74,3.74,0,0,1-.88-.07.3.3,0,0,1-.18-.14c-.12-.09-.22-.25-.34-.36C138.38,25.44,138.54,25.19,138.67,25.2Zm-5,6.48a3.86,3.86,0,0,1,.87.52,1.44,1.44,0,0,1,.52,1.52,2.73,2.73,0,0,1-2.7,2.15,2.17,2.17,0,0,1-1.87-2.95A2.66,2.66,0,0,1,133.67,31.68Zm-5.08-4.14a1.5,1.5,0,0,1,2.12,0c0,.22.12.48,0,.63a1.5,1.5,0,0,1-2,.54A.88.88,0,0,1,128.59,27.54Zm-6.08,2.82a2.15,2.15,0,0,1,2.48-.87,1.54,1.54,0,0,1,.82,1.37,1.81,1.81,0,0,1-1.75,1.72,1.55,1.55,0,0,1-1.66-1.37A2.37,2.37,0,0,1,122.51,30.36Zm-1.7,8.24a3,3,0,0,1,2.75-1.67,2.66,2.66,0,0,1,1.25.39,2.13,2.13,0,0,1,.76,3,4.81,4.81,0,0,1-2.64,2.51,1.79,1.79,0,0,1-1.85-.48A2.72,2.72,0,0,1,120.81,38.6ZM85.8,6.55a1.75,1.75,0,0,0-.1.74,1.27,1.27,0,0,1-.15.41c-.22.43-.41.37-.65,0a13.71,13.71,0,0,0-1-1.07l0,0Zm-4.67,0c-.62.69-1.08.68-1.74,0ZM76,11.26a1,1,0,0,1,.73-.22.54.54,0,0,1-.32.43c-.29.11-.6.13-.89.22ZM73.68,9a1.69,1.69,0,0,1,.45,0,1,1,0,0,1,.68.51,1,1,0,0,1-.68.5,3.39,3.39,0,0,1-.45,0A1,1,0,0,1,73,9.55,1,1,0,0,1,73.68,9Zm-9,4.76a1.19,1.19,0,0,0-.7-.21s0-.07,0-.1.17-.28.27-.32.39.16.53.46a.64.64,0,0,1,0,.28Zm2.88.81a10.14,10.14,0,0,0-1.35,0c-.63,0-.71,0-1.24-.54,1,0,1.78,0,2.54,0,.57,0,.82-.39,1.06-.76.42-.54,1.2,0,1.59-.68a1.14,1.14,0,0,1,1.13-.62c1,0,2.09,0,3.16,0A2.08,2.08,0,0,0,75,12c0,.05-.09.1-.13.16-.41.68-1.08.32-1.64.36a6.45,6.45,0,0,1-1.81,0c-.57-.06-.86.32-1.11.71-.39.66-1.19,0-1.56.68A1.1,1.1,0,0,1,67.61,14.61Zm1.32,127.64a3.18,3.18,0,0,1-.31-.34.7.7,0,0,1,.13-.19l.08.09a4.47,4.47,0,0,1,.38.44A.34.34,0,0,1,68.93,142.25Zm.52-43.59a.64.64,0,0,1-.81-.29A1.08,1.08,0,0,1,69.33,97c.14,0,.34.07.41.17A1.07,1.07,0,0,1,69.45,98.66Zm10.06,44a1.24,1.24,0,0,1-.45.78c-.24,0-.46,0-.68,0a.3.3,0,0,0,0-.2,1.84,1.84,0,0,1,.76-1.64h0a1.22,1.22,0,0,1,.15.17A1.11,1.11,0,0,1,79.51,142.66Zm3.47.41a.65.65,0,0,1-.31.34.88.88,0,0,1-.43,0c-.58,0-.93-.32-.78-.69a.55.55,0,0,1,.74-.34c.16,0,.33,0,.45,0C83,142.62,83.1,142.84,83,143.07Zm3.13-29a1.49,1.49,0,0,1,1.69-.12,1.06,1.06,0,0,1,.57,1.07,1,1,0,0,1-.84.85,1.53,1.53,0,0,1-1.28-.29,4.46,4.46,0,0,1-.39-.58A.83.83,0,0,1,86.11,114.05Zm3.45,12.28a2.06,2.06,0,0,1-2.53.78,3,3,0,0,1-.65-.46,1.11,1.11,0,0,1-.31-1.19A2.1,2.1,0,0,1,88.28,124,1.68,1.68,0,0,1,89.56,126.33Zm.78-21H71.78v-54H90.34Zm2.8-69.54a13.23,13.23,0,0,1-2.75,4.16,12.93,12.93,0,0,1-4,2.81,12.38,12.38,0,0,1-9.84,0,12.86,12.86,0,0,1-4.05-2.81,13,13,0,0,1-2.74-4.16,13.23,13.23,0,0,1,0-10.09,13.15,13.15,0,0,1,2.74-4.16,12.86,12.86,0,0,1,4.05-2.81,12.38,12.38,0,0,1,9.84,0,12.93,12.93,0,0,1,4,2.81,13.34,13.34,0,0,1,2.75,4.16,13.35,13.35,0,0,1,0,10.09ZM99.28,132c-.12,0-.3,0-.45-.06,0-.16,0-.4.09-.45s.3,0,.46.07S99.47,131.89,99.28,132Zm6.47-7a1.68,1.68,0,0,1-2,.53,1.19,1.19,0,0,1-.56-1.11,1.42,1.42,0,0,1,1.46-1.23,1.21,1.21,0,0,1,1.2,1.17A1.91,1.91,0,0,1,105.75,125Zm10.11,18.88a1.28,1.28,0,0,1,.62-.42A1.39,1.39,0,0,1,115.86,143.86Zm31.3-59.69a24.17,24.17,0,0,1-4.65,7.6,21.34,21.34,0,0,1-7,5.12,20.79,20.79,0,0,1-8.78,1.86,18.16,18.16,0,0,1-13.78-5.83v27H97.59a2,2,0,0,1-.23,2.54,2.31,2.31,0,0,1-2.22,1.13,2.22,2.22,0,0,1-1-.37,1.66,1.66,0,0,1-.41-2.33A3.71,3.71,0,0,1,96,119.15a1.4,1.4,0,0,1,1.38.45V52h15.59v5a16.27,16.27,0,0,1,13.6-6.45,20.81,20.81,0,0,1,8.83,1.9,22.44,22.44,0,0,1,7.11,5.17,23.68,23.68,0,0,1,4.69,7.69,26.4,26.4,0,0,1,1.68,9.45A25.69,25.69,0,0,1,147.16,84.17Zm3.42,27.8a.28.28,0,0,1,.43-.2.57.57,0,0,1,.18.76.25.25,0,0,1-.37.06A.6.6,0,0,1,150.58,112Zm0,8.1c-.07.05-.15.13-.23.13a.34.34,0,0,1-.21-.13.51.51,0,0,1,0-.53.43.43,0,0,1,.18-.2c.09-.06.27,0,.31.2a1.88,1.88,0,0,1,.06.37A.76.76,0,0,1,150.58,120.07Zm1.14-3a1.68,1.68,0,0,1-.37.21,1,1,0,0,1-1.29-.35,1,1,0,0,1,.36-1.59,1.49,1.49,0,0,1,.93-.11,2.45,2.45,0,0,1,.45.21.86.86,0,0,1,.28.32A1.17,1.17,0,0,1,151.72,117.11Zm3.93-8.68a2.13,2.13,0,0,1-.21.31.44.44,0,0,1-.52.07.8.8,0,0,1-.41-.82.6.6,0,0,1,.41-.52.58.58,0,0,1,.61.25A.83.83,0,0,1,155.65,108.43Zm1.2,12.49c-.06.13-.24.26-.34.22a.63.63,0,0,1-.23-.16.86.86,0,0,1-.19-.81.47.47,0,0,1,.43-.33.55.55,0,0,1,.4.37A1.15,1.15,0,0,1,156.85,120.92Zm3.78-6.1a1.37,1.37,0,0,1-.22.2,2.3,2.3,0,0,1-2.48,0A2,2,0,0,1,157,113a2.26,2.26,0,0,1,1.41-1.72,1.23,1.23,0,0,1,.42-.1,2.47,2.47,0,0,1,1.93.87A2.29,2.29,0,0,1,160.63,114.82Zm.59-8.78a.63.63,0,0,1-.54.41,1.17,1.17,0,0,1-1.23-.8.92.92,0,0,1,.94-1.14,1.11,1.11,0,0,1,.92,1.11A1.58,1.58,0,0,1,161.22,106Zm2.29,3.54a.79.79,0,0,1-.9.25,1.06,1.06,0,0,1-.56-.63.8.8,0,0,1,.51-1,2.84,2.84,0,0,1,.44-.1,1.58,1.58,0,0,1,.36.2A1,1,0,0,1,163.51,109.58Z" style="fill:#69a4d9"></path><path d="M28.9,121l-.2-.72A1.06,1.06,0,0,0,28.9,121Z" style="fill:#69a4d9"></path><path d="M93.14,25.66a13.34,13.34,0,0,0-2.75-4.16,12.93,12.93,0,0,0-4-2.81,12.38,12.38,0,0,0-9.84,0,12.86,12.86,0,0,0-4.05,2.81,13.15,13.15,0,0,0-2.74,4.16,13.23,13.23,0,0,0,0,10.09,13,13,0,0,0,2.74,4.16,12.86,12.86,0,0,0,4.05,2.81,12.38,12.38,0,0,0,9.84,0,12.93,12.93,0,0,0,4-2.81,13.23,13.23,0,0,0,2.75-4.16,13.35,13.35,0,0,0,0-10.09Z" style="fill:#f5991c"></path><path d="M217.32,41.55a5.12,5.12,0,0,0,4.43,2.38c3.18,0,5.63-2.49,5.63-6.17s-2.45-6.08-5.63-6.08a5,5,0,0,0-4.43,2.38V31.87h-2V49.36h2Zm4-8.16a4,4,0,0,1,4,4.37c0,2.79-1.84,4.44-4,4.44a4.07,4.07,0,0,1-4-4.42A4.07,4.07,0,0,1,221.34,33.39Z" style="fill:#f5991c"></path><path d="M235.1,43.93a5.33,5.33,0,0,0,5.45-3.86h-2.12a3.26,3.26,0,0,1-3.33,2.19,3.73,3.73,0,0,1-3.85-3.72h9.47a9.28,9.28,0,0,0,.07-1.19,5.43,5.43,0,0,0-5.69-5.67c-3.46,0-5.86,2.36-5.86,6.1S231.72,43.93,235.1,43.93ZM235,33.35a3.47,3.47,0,0,1,3.74,3.59h-7.48A3.67,3.67,0,0,1,235,33.35Z" style="fill:#f5991c"></path><path d="M248.51,43.93A5.33,5.33,0,0,0,254,40.07h-2.12a3.26,3.26,0,0,1-3.33,2.19,3.73,3.73,0,0,1-3.85-3.72h9.48a11.56,11.56,0,0,0,.06-1.19,5.43,5.43,0,0,0-5.69-5.67c-3.46,0-5.86,2.36-5.86,6.1S245.13,43.93,248.51,43.93Zm-.09-10.58a3.48,3.48,0,0,1,3.75,3.59h-7.49A3.67,3.67,0,0,1,248.42,33.35Z" style="fill:#f5991c"></path><path d="M258.76,37.28c0-2.74,1.43-3.59,3.31-3.59h.52v-2a4,4,0,0,0-3.83,2.14V31.87h-2V43.73h2Z" style="fill:#f5991c"></path><rect x="215.35" y="57.83" width="1.97" height="11.86" style="fill:#f5991c"></rect><path d="M216.37,55.91a1.35,1.35,0,0,0,0-2.69,1.35,1.35,0,1,0,0,2.69Z" style="fill:#f5991c"></path><path d="M231.29,69.69v-7c0-3.4-2.09-5.09-4.84-5.09a4.4,4.4,0,0,0-3.81,1.91V57.83h-2V69.69h2V63.13c0-2.55,1.38-3.81,3.4-3.81s3.31,1.24,3.31,3.66v6.71Z" style="fill:#f5991c"></path><path d="M234.1,61c0,4.41,7,2.87,7,5.51,0,1-.86,1.76-2.42,1.76s-2.68-.87-2.79-2h-2c.13,2.17,2.08,3.68,4.85,3.68,2.62,0,4.33-1.47,4.33-3.42-.09-4.24-7-2.7-7-5.51,0-1,.87-1.65,2.32-1.65A2.28,2.28,0,0,1,241,61.36h2c-.13-2.32-1.86-3.72-4.48-3.72S234.1,59.13,234.1,61Z" style="fill:#f5991c"></path><path d="M247.77,60V57.83h-2V75.31h2V67.5a5.15,5.15,0,0,0,4.44,2.38c3.18,0,5.62-2.49,5.62-6.16s-2.44-6.08-5.62-6.08A5,5,0,0,0,247.77,60Zm8,3.7c0,2.79-1.84,4.43-4,4.43a4.07,4.07,0,0,1-4-4.41,4.08,4.08,0,0,1,4-4.39C254,59.35,255.82,60.92,255.82,63.72Z" style="fill:#f5991c"></path><path d="M261.44,53.22a1.35,1.35,0,1,0,1.3,1.34A1.31,1.31,0,0,0,261.44,53.22Z" style="fill:#f5991c"></path><rect x="260.43" y="57.83" width="1.97" height="11.86" style="fill:#f5991c"></rect><path d="M267.72,63.24c0-2.75,1.43-3.59,3.31-3.59h.52v-2a4,4,0,0,0-3.83,2.15V57.83h-2V69.69h2Z" style="fill:#f5991c"></path><path d="M278.68,69.88a4.94,4.94,0,0,0,4.44-2.4v2.21h2V57.83h-2V60a4.92,4.92,0,0,0-4.41-2.35c-3.18,0-5.63,2.38-5.63,6.08S275.53,69.88,278.68,69.88Zm.42-10.53a4.06,4.06,0,0,1,4,4.39c0,2.79-1.86,4.41-4,4.41s-4-1.64-4-4.43S276.93,59.35,279.1,59.35Z" style="fill:#f5991c"></path><path d="M288.87,66.44c0,2.38,1.19,3.25,3.29,3.25h1.77V68h-1.45c-1.21,0-1.64-.41-1.64-1.58v-7h3.09V57.83h-3.09v-3h-2v3h-1.54v1.62h1.54Z" style="fill:#f5991c"></path><rect x="296.31" y="57.83" width="1.97" height="11.86" style="fill:#f5991c"></rect><path d="M297.33,55.91A1.35,1.35,0,1,0,296,54.56,1.32,1.32,0,0,0,297.33,55.91Z" style="fill:#f5991c"></path><path d="M306.89,57.64a5.79,5.79,0,0,0-6,6.1,5.75,5.75,0,0,0,5.9,6.14,5.88,5.88,0,0,0,6.08-6.14A5.78,5.78,0,0,0,306.89,57.64Zm-.09,10.51c-2.05,0-3.89-1.4-3.89-4.41s1.88-4.39,4-4.39,4,1.4,4,4.39S308.86,68.15,306.8,68.15Z" style="fill:#f5991c"></path><path d="M321.25,57.61a4.37,4.37,0,0,0-3.8,1.91V57.83h-2V69.69h2V63.13c0-2.55,1.38-3.81,3.39-3.81s3.31,1.24,3.31,3.66v6.71h2v-7C326.1,59.3,324,57.61,321.25,57.61Z" style="fill:#f5991c"></path><path d="M221.75,83.59A5,5,0,0,0,217.32,86V83.79h-2v17.48h2V93.46a5.12,5.12,0,0,0,4.43,2.38c3.18,0,5.63-2.49,5.63-6.17S224.93,83.59,221.75,83.59Zm-.41,10.52a4.42,4.42,0,0,1,0-8.81,4,4,0,0,1,4,4.37C225.37,92.47,223.53,94.11,221.34,94.11Z" style="fill:#f5991c"></path><path d="M231.94,89.2c0-2.75,1.43-3.59,3.31-3.59h.52v-2a4,4,0,0,0-3.83,2.14V83.79h-2V95.65h2Z" style="fill:#f5991c"></path><path d="M249.29,89.7a6,6,0,1,0-6.08,6.14A5.88,5.88,0,0,0,249.29,89.7Zm-10,0c0-3,1.88-4.4,4-4.4s4,1.41,4,4.4-2,4.41-4.07,4.41S239.32,92.7,239.32,89.7Z" style="fill:#f5991c"></path><path d="M252.94,79.18a1.34,1.34,0,1,0,1.32,1.34A1.32,1.32,0,0,0,252.94,79.18Z" style="fill:#f5991c"></path><path d="M252,98.18c0,1-.41,1.43-1.49,1.43h-.83v1.66h1.15c2,0,3.14-.91,3.14-3V83.79h-2Z" style="fill:#f5991c"></path><path d="M268.07,89.26a5.44,5.44,0,0,0-5.7-5.67c-3.46,0-5.86,2.36-5.86,6.11s2.49,6.14,5.86,6.14A5.34,5.34,0,0,0,267.83,92h-2.12a3.26,3.26,0,0,1-3.34,2.18,3.73,3.73,0,0,1-3.85-3.72H268A11.37,11.37,0,0,0,268.07,89.26Zm-9.53-.41a3.68,3.68,0,0,1,3.75-3.59A3.48,3.48,0,0,1,266,88.85Z" style="fill:#f5991c"></path><path d="M275.7,85.26a3.23,3.23,0,0,1,3.35,2.34h2.12c-.6-2.49-2.53-4-5.47-4-3.38,0-5.78,2.38-5.78,6.11s2.4,6.14,5.78,6.14a5.26,5.26,0,0,0,5.47-4h-2.12a3.17,3.17,0,0,1-3.35,2.33c-2.16,0-3.77-1.53-3.77-4.47S273.54,85.26,275.7,85.26Z" style="fill:#f5991c"></path><path d="M284.22,80.8v3h-1.54v1.62h1.54v7c0,2.38,1.19,3.25,3.29,3.25h1.77V94h-1.45c-1.21,0-1.64-.41-1.64-1.58v-7h3.09V83.79h-3.09v-3Z" style="fill:#f5991c"></path><path d="M291.25,86.9c0,4.42,7,2.88,7,5.52,0,1-.86,1.75-2.42,1.75s-2.68-.86-2.79-2h-2c.13,2.17,2.08,3.68,4.85,3.68,2.62,0,4.33-1.47,4.33-3.42-.09-4.24-7-2.7-7-5.52,0-1,.87-1.64,2.32-1.64a2.29,2.29,0,0,1,2.57,2.06h2c-.13-2.32-1.86-3.73-4.48-3.73S291.25,85.09,291.25,86.9Z" style="fill:#f5991c"></path><path d="M216.91,112.86c0-1,.86-1.64,2.31-1.64a2.28,2.28,0,0,1,2.58,2h2c-.13-2.31-1.87-3.72-4.48-3.72s-4.35,1.49-4.35,3.31c0,4.42,7,2.88,7,5.52,0,1-.87,1.75-2.43,1.75s-2.68-.86-2.79-2h-2c.13,2.16,2.08,3.68,4.85,3.68,2.61,0,4.32-1.47,4.32-3.42C223.79,114.14,216.91,115.67,216.91,112.86Z" style="fill:#f5991c"></path><path d="M231.68,111.22a3.25,3.25,0,0,1,3.36,2.33h2.12c-.61-2.48-2.54-4-5.48-4-3.37,0-5.78,2.38-5.78,6.1s2.41,6.15,5.78,6.15a5.29,5.29,0,0,0,5.48-4H235a3.19,3.19,0,0,1-3.36,2.34c-2.16,0-3.76-1.54-3.76-4.48S229.52,111.22,231.68,111.22Z" style="fill:#f5991c"></path><path d="M245,109.55a6.13,6.13,0,0,0-.09,12.25,5.88,5.88,0,0,0,6.08-6.15A5.79,5.79,0,0,0,245,109.55Zm-.09,10.52c-2.05,0-3.89-1.41-3.89-4.42s1.88-4.39,4-4.39,4,1.41,4,4.39S247,120.07,244.94,120.07Z" style="fill:#f5991c"></path><path d="M256,106.76h-2v3h-1.54v1.62h1.54v7c0,2.38,1.19,3.24,3.28,3.24h1.78v-1.66h-1.45c-1.21,0-1.65-.41-1.65-1.58v-7h3.1v-1.62H256Z" style="fill:#f5991c"></path><rect x="261.49" y="105.59" width="1.97" height="16.01" style="fill:#f5991c"></rect><path d="M276.11,111.91a4.93,4.93,0,0,0-4.41-2.36c-3.18,0-5.63,2.38-5.63,6.08s2.45,6.17,5.61,6.17a5,5,0,0,0,4.43-2.4v2.2h2V109.75h-2Zm-4,8.16c-2.17,0-4-1.65-4-4.44s1.84-4.37,4-4.37a4.06,4.06,0,0,1,4,4.39C276.11,118.44,274.25,120.07,272.09,120.07Z" style="fill:#f5991c"></path><path d="M287.21,109.53a4.39,4.39,0,0,0-3.81,1.9v-1.68h-2V121.6h2v-6.55c0-2.56,1.38-3.81,3.4-3.81s3.31,1.23,3.31,3.66v6.7h1.94v-7C292.05,111.22,290,109.53,287.21,109.53Z" style="fill:#f5991c"></path><path d="M304.58,111.87a5.15,5.15,0,0,0-4.39-2.32c-3.21,0-5.65,2.38-5.65,6.08s2.44,6.17,5.62,6.17a4.88,4.88,0,0,0,4.42-2.43v2.23h2v-16h-2Zm-4,8.2c-2.16,0-4-1.65-4-4.44s1.84-4.37,4-4.37a4.06,4.06,0,0,1,4,4.39C304.58,118.44,302.72,120.07,300.55,120.07Z" style="fill:#f5991c"></path></svg> 